<?xml version="1.0" encoding="utf-8"?>
<svg version="1.1" xmlns:xlink="http://www.w3.org/1999/xlink" width="1314px" height="141px" xmlns="http://www.w3.org/2000/svg">
  <defs>
    <mask fill="white" id="clip32">
      <path d="M 0 141  L 0 0  L 26.9660756666203 0  L 1314 0  L 1314 141  L 897.800904977377 141  L 0 141  Z " fill-rule="evenodd" />
    </mask>
  </defs>
  <g transform="matrix(1 0 0 1 -147 -103 )">
    <path d="M 0 141  L 0 0  L 26.9660756666203 0  L 1314 0  L 1314 141  L 897.800904977377 141  L 0 141  Z " fill-rule="nonzero" fill="#f2f2f2" stroke="none" transform="matrix(1 0 0 1 147 103 )" />
    <path d="M 0 141  L 0 0  L 26.9660756666203 0  L 1314 0  L 1314 141  L 897.800904977377 141  L 0 141  Z " stroke-width="2" stroke="#f2f2f2" fill="none" transform="matrix(1 0 0 1 147 103 )" mask="url(#clip32)" />
  </g>
</svg>