<?xml version="1.0" encoding="utf-8"?>
<svg version="1.1" xmlns:xlink="http://www.w3.org/1999/xlink" width="1020px" height="141px" xmlns="http://www.w3.org/2000/svg">
  <defs>
    <mask fill="white" id="clip7">
      <path d="M 0 141  L 0 0  L 20.932570152171 0  L 1020 0  L 1020 141  L 696.923076923078 141  L 0 141  Z " fill-rule="evenodd" />
    </mask>
  </defs>
  <g transform="matrix(1 0 0 1 -121 -57 )">
    <path d="M 0 141  L 0 0  L 20.932570152171 0  L 1020 0  L 1020 141  L 696.923076923078 141  L 0 141  Z " fill-rule="nonzero" fill="#f2f2f2" stroke="none" transform="matrix(1 0 0 1 121 57 )" />
    <path d="M 0 141  L 0 0  L 20.932570152171 0  L 1020 0  L 1020 141  L 696.923076923078 141  L 0 141  Z " stroke-width="2" stroke="#f2f2f2" fill="none" transform="matrix(1 0 0 1 121 57 )" mask="url(#clip7)" />
  </g>
</svg>