<?xml version="1.0" encoding="utf-8"?>
<svg version="1.1" xmlns:xlink="http://www.w3.org/1999/xlink" width="1314px" height="104px" xmlns="http://www.w3.org/2000/svg">
  <defs>
    <mask fill="white" id="clip9">
      <path d="M 0 104  L 0 0  L 26.9660756666203 0  L 1314 0  L 1314 104  L 897.800904977377 104  L 0 104  Z " fill-rule="evenodd" />
    </mask>
  </defs>
  <g transform="matrix(1 0 0 1 -75 -65 )">
    <path d="M 0 104  L 0 0  L 26.9660756666203 0  L 1314 0  L 1314 104  L 897.800904977377 104  L 0 104  Z " fill-rule="nonzero" fill="#f2f2f2" stroke="none" transform="matrix(1 0 0 1 75 65 )" />
    <path d="M 0 104  L 0 0  L 26.9660756666203 0  L 1314 0  L 1314 104  L 897.800904977377 104  L 0 104  Z " stroke-width="2" stroke="#f2f2f2" fill="none" transform="matrix(1 0 0 1 75 65 )" mask="url(#clip9)" />
  </g>
</svg>