<?xml version="1.0" encoding="utf-8"?>
<svg version="1.1" xmlns:xlink="http://www.w3.org/1999/xlink" width="1838px" height="141px" xmlns="http://www.w3.org/2000/svg">
  <defs>
    <mask fill="white" id="clip8">
      <path d="M 0 141  L 0 0  L 37.7196705291081 0  L 1838 0  L 1838 141  L 1255.82805429864 141  L 0 141  Z " fill-rule="evenodd" />
    </mask>
  </defs>
  <g transform="matrix(1 0 0 1 -63 -88 )">
    <path d="M 0 141  L 0 0  L 37.7196705291081 0  L 1838 0  L 1838 141  L 1255.82805429864 141  L 0 141  Z " fill-rule="nonzero" fill="#f2f2f2" stroke="none" transform="matrix(1 0 0 1 63 88 )" />
    <path d="M 0 141  L 0 0  L 37.7196705291081 0  L 1838 0  L 1838 141  L 1255.82805429864 141  L 0 141  Z " stroke-width="2" stroke="#f2f2f2" fill="none" transform="matrix(1 0 0 1 63 88 )" mask="url(#clip8)" />
  </g>
</svg>