<?xml version="1.0" encoding="utf-8"?>
<svg version="1.1" xmlns:xlink="http://www.w3.org/1999/xlink" width="20px" height="20px" xmlns="http://www.w3.org/2000/svg">
  <g transform="matrix(1 0 0 1 -1568 -441 )">
    <path d="M 19.45 10.073828125  C 19.45 4.83132812499999  15.1999609375 0.581640624999995  9.9578125 0.581640624999995  C 4.7153125 0.581640624999995  0.465625000000003 4.83132812499999  0.465625000000003 10.073828125  C 0.465625000000003 15.3159765625  4.7153125 19.566015625  9.9578125 19.566015625  C 15.1999609375 19.566015625  19.45 15.3159765625  19.45 10.073828125  Z M 18.651953125 10.0703125  C 18.64421875 14.8687890625  14.7562890625 18.75671875  9.9578125 18.764453125  C 5.1540625 18.7665625  1.25875 14.8737109375  1.256640625 10.0703125  C 1.2548828125 5.2669140625  5.14703125 1.37124999999999  9.95078124999999 1.36914062500001  C 14.75453125 1.36703125  18.6501953125 5.25953125000001  18.651953125 10.06328125  C 18.651953125 10.065390625  18.651953125 10.0678515625  18.651953125 10.0703125  Z M 4.375 10  C 4.375 6.84999999999999  6.85000000000001 4.375  10 4.375  C 13.15 4.375  15.625 6.84999999999999  15.625 10  C 15.625 13.15  13.15 15.625  10 15.625  C 6.85000000000001 15.625  4.375 13.15  4.375 10  Z " fill-rule="nonzero" fill="#02a7f0" stroke="none" transform="matrix(1 0 0 1 1568 441 )" />
  </g>
</svg>