<?xml version="1.0" encoding="utf-8"?>
<svg version="1.1" xmlns:xlink="http://www.w3.org/1999/xlink" width="25px" height="25px" xmlns="http://www.w3.org/2000/svg">
  <g transform="matrix(1 0 0 1 -2186 -1967 )">
    <path d="M 23.0243389423077 2.33487215909091  C 24.3414463141026 3.89145359848485  25 5.76467803030303  25 7.95454545454546  L 25 12.5  C 25 12.8077651515151  24.9048477564103 13.0741003787879  24.7145432692308 13.2990056818182  C 24.5242387820513 13.5239109848485  24.2988782051282 13.6363636363636  24.0384615384615 13.6363636363636  L 23.0769230769231 13.6363636363636  C 22.8165064102564 13.6363636363636  22.5911458333333 13.5239109848485  22.4008413461538 13.2990056818182  C 22.2105368589744 13.0741003787879  22.1153846153846 12.8077651515151  22.1153846153846 12.5  L 22.1153846153846 7.95454545454546  C 22.1153846153846 6.6998106060606  21.7397836538462 5.62855113636363  20.9885817307692 4.74076704545454  C 20.2373798076923 3.85298295454546  19.3309294871795 3.40909090909091  18.2692307692308 3.40909090909091  C 17.2075320512821 3.40909090909091  16.3010817307692 3.85298295454546  15.5498798076923 4.74076704545454  C 14.7986778846154 5.62855113636363  14.4230769230769 6.6998106060606  14.4230769230769 7.95454545454546  L 14.4230769230769 11.3636363636364  L 15.8653846153846 11.3636363636364  C 16.2660256410256 11.3636363636364  16.6065705128205 11.5293560606061  16.8870192307692 11.8607954545455  C 17.1674679487179 12.1922348484848  17.3076923076923 12.594696969697  17 13.0681818181818  L 17 23.2954545454545  C 17.3076923076923 23.7689393939394  17.1674679487179 24.1714015151515  16.8870192307692 24.5028409090909  C 16.6065705128205 24.8342803030303  16.2660256410256 25  15.8653846153846 25  L 1.44230769230769 25  C 1.04166666666667 25  0.701121794871795 24.8342803030303  0.420673076923077 24.5028409090909  C 0.140224358974359 24.1714015151515  0 23.7689393939394  0 23.2954545454545  L 0 13.0681818181818  C 0 12.594696969697  0.140224358974359 12.1922348484848  0.420673076923077 11.8607954545455  C 0.701121794871795 11.5293560606061  1.04166666666667 11.3636363636364  1.44230769230769 11.3636363636364  L 11.5384615384615 11.3636363636364  L 11.5384615384615 7.95454545454546  C 11.5384615384615 5.76467803030303  12.197015224359 3.89145359848485  13.5141225961538 2.33487215909091  C 14.8312299679487 0.77829071969697  16.416266025641 0  18.2692307692308 0  C 20.1221955128205 0  21.7072315705128 0.77829071969697  23.0243389423077 2.33487215909091  Z " fill-rule="nonzero" fill="#000000" stroke="none" transform="matrix(1 0 0 1 2186 1967 )" />
  </g>
</svg>