<?xml version="1.0" encoding="utf-8"?>
<svg version="1.1" xmlns:xlink="http://www.w3.org/1999/xlink" width="25px" height="26px" xmlns="http://www.w3.org/2000/svg">
  <g transform="matrix(1 0 0 1 -1687 -282 )">
    <path d="M 6.94444444444444 8.27272727272727  L 6.94444444444444 12  L 18.0555555555556 12  L 18.0555555555556 8.27272727272727  C 18.0555555555556 6.96780303030303  17.5130208333333 5.85369318181818  16.4279513888889 4.93039772727273  C 15.3428819444444 4.00710227272727  14.0335648148148 3.54545454545455  12.5 3.54545454545455  C 10.9664351851852 3.54545454545455  9.65711805555556 4.00710227272727  8.57204861111111 4.93039772727273  C 7.48697916666667 5.85369318181818  6.94444444444444 6.96780303030303  6.94444444444444 8.27272727272727  Z M 24.3923611111111 12.3352272727273  C 24.7974537037037 12.6799242424242  25 13.0984848484848  25 13.5909090909091  L 25 24.2272727272727  C 25 24.719696969697  24.7974537037037 25.1382575757576  24.3923611111111 25.4829545454545  C 23.9872685185185 25.8276515151515  23.4953703703704 26  22.9166666666667 26  L 2.08333333333333 26  C 1.50462962962963 26  1.01273148148148 25.8276515151515  0.607638888888889 25.4829545454545  C 0.202546296296296 25.1382575757576  0 24.719696969697  0 24.2272727272727  L 0 13.5909090909091  C 0 13.0984848484848  0.202546296296296 12.6799242424242  0.607638888888889 12.3352272727273  C 1.01273148148148 11.9905303030303  1.50462962962963 11.8181818181818  2.08333333333333 11.8181818181818  L 2.77777777777778 11.8181818181818  L 2.77777777777778 8.27272727272727  C 2.77777777777778 6.00757575757576  3.73263888888889 4.0625  5.64236111111111 2.4375  C 7.55208333333333 0.8125  9.83796296296296 0  12.5 0  C 15.162037037037 0  17.4479166666667 0.8125  19.3576388888889 2.4375  C 21.2673611111111 4.0625  22.2222222222222 6.00757575757576  22.2222222222222 8.27272727272727  L 22.2222222222222 11.8181818181818  L 22.9166666666667 11.8181818181818  C 23.4953703703704 11.8181818181818  23.9872685185185 11.9905303030303  24.3923611111111 12.3352272727273  Z " fill-rule="nonzero" fill="#000000" stroke="none" transform="matrix(1 0 0 1 1687 282 )" />
  </g>
</svg>