<?xml version="1.0" encoding="utf-8"?>
<svg version="1.1" xmlns:xlink="http://www.w3.org/1999/xlink" width="1020px" height="106px" xmlns="http://www.w3.org/2000/svg">
  <defs>
    <mask fill="white" id="clip13">
      <path d="M 0 106  L 0 0  L 20.932570152171 0  L 1020 0  L 1020 106  L 696.923076923078 106  L 0 106  Z " fill-rule="evenodd" />
    </mask>
  </defs>
  <g transform="matrix(1 0 0 1 -83 -57 )">
    <path d="M 0 106  L 0 0  L 20.932570152171 0  L 1020 0  L 1020 106  L 696.923076923078 106  L 0 106  Z " fill-rule="nonzero" fill="#f2f2f2" stroke="none" transform="matrix(1 0 0 1 83 57 )" />
    <path d="M 0 106  L 0 0  L 20.932570152171 0  L 1020 0  L 1020 106  L 696.923076923078 106  L 0 106  Z " stroke-width="2" stroke="#f2f2f2" fill="none" transform="matrix(1 0 0 1 83 57 )" mask="url(#clip13)" />
  </g>
</svg>